<svg fill="none" height="64" viewBox="0 0 65 64" width="65" xmlns="http://www.w3.org/2000/svg" xmlns:xlink="http://www.w3.org/1999/xlink"><clipPath id="a"><path d="m0 0h65v63.8234h-65z"/></clipPath><g clip-path="url(#a)" opacity=".78"><path d="m0 4c0-2.20914 1.79086-4 4-4h57c2.2091 0 4 1.79086 4 4v55.8234c0 2.2091-1.7909 4-4 4h-57c-2.20914 0-4-1.7909-4-4z" fill="#f06"/><g fill="#fff"><path d="m22.1178 20.5381c2.0559-.0294 3.7012-1.6845 3.6814-3.7035-.02-2.0191-1.6976-3.6426-3.754-3.6329s-3.7179 1.6489-3.7182 3.6681c.0017.4858.1013.9665.2931 1.4144.1918.4478.4719.854.8243 1.195s.7701.6102 1.2289.792.9498.2726 1.4445.2672z"/><path d="m14.258 40.178c-.2151.9033-.3275 1.8273-.3351 2.7549 0 3.2293 1.7834 5.3736 5.5742 5.3736 3.1434 0 5.6939-1.8329 7.5271-4.7942l-1.1208 4.4165h6.24l3.57-14.0411c.8917-3.5589 2.618-5.4045 5.2388-5.4045 2.0617 0 3.3437 1.2585 3.3437 3.3392.0102.6669-.0838 1.3316-.2783 1.9708l-1.8383 6.4564c-.2629.8891-.3941 1.8108-.3897 2.7367 0 3.0635 1.8383 5.3103 5.6834 5.3103 3.2891 0 5.91-2.0783 7.3582-7.059l-2.4519-.9319c-1.2272 3.3392-2.2852 3.9416-3.12 3.9416-.8346 0-1.2845-.546-1.2845-1.6415.0241-.5747.1175-1.1446.2782-1.6978l1.7863-6.2926c.401-1.2938.6078-2.6381.6137-3.9904 0-4.7077-2.8991-7.1635-6.4117-7.1635-3.2891 0-6.6325 2.9127-8.3045 5.979l1.2246-5.5043h-9.5291l-1.3389 4.8506h4.4617l-2.7455 10.7837c-2.1582 4.7077-6.1204 4.7842-6.6171 4.6745-.8165-.1815-1.3365-.4851-1.3365-1.532.0239-.8474.1549-1.6886.39-2.5043l4.1808-16.2852h-10.5871l-1.3363 4.8506h4.4017z"/></g></g></svg>