<svg fill="none" height="57" viewBox="0 0 64 57" width="64" xmlns="http://www.w3.org/2000/svg" xmlns:xlink="http://www.w3.org/1999/xlink"><clipPath id="a"><path d="m0 0h64v56.95h-64z"/></clipPath><g clip-path="url(#a)"><path d="m32 0-18.0363 1.87248-13.9637 18.40562 32 36.5889 32-36.5891-13.9635-18.40542z" fill="#fdb300"/><path d="m0 20.2782 32 36.5889-19.0385-36.5889z" fill="#eb6c00"/><path d="m51.0382 20.2782-19.0382 36.5889 32-36.5889z" fill="#eb6c00"/><path d="m12.9617 20.2782 19.0385 36.5889 19.0385-36.5889z" fill="#fdad00"/><path d="m13.9636 1.87248-1.0025 18.40562 19.0387-20.2781z" fill="#fdd231"/><path d="m51.0382 20.2781-1.0019-18.40562-18.0363-1.87248z" fill="#fdd231"/><path d="m51.0383 20.2781h12.9615l-13.9635-18.40566z" fill="#fdad00"/><path d="m0 20.2781h12.9615l1.0022-18.40566z" fill="#fdad00"/><path d="m32.0002 0-19.0385 20.2779h38.077z" fill="#feeeb7"/></g></svg>