<svg fill="none" height="64" viewBox="0 0 65 64" width="65" xmlns="http://www.w3.org/2000/svg"><g clip-rule="evenodd" fill-rule="evenodd"><path d="m13.6717 40.2192c.0007.8783-.175 1.7482-.5171 2.5598s-.8438 1.549-1.4765 2.17-1.3839 1.1134-2.21059 1.4489c-.82671.3356-1.7127.5078-2.60727.5067-.89411.0004-1.77952-.1723-2.6056-.5082-.82609-.3359-1.57664-.8284-2.20875-1.4493-.6321-.6209-1.133362-1.358-1.475113-2.1693-.34175-.8113-.5172876-1.6807-.5165756-2.5586-.0007124-.8782.1749146-1.7478.5168346-2.5593.341919-.8114.843424-1.5487 1.475814-2.1696.63239-.621 1.38327-1.1134 2.20966-1.4491.8264-.3358 1.7121-.5082 2.60644-.5075h6.81145v6.6855zm3.4044 0c-.0007-.8782.1749-1.7478.5168-2.5593.3419-.8114.8434-1.5487 1.4758-2.1696.6324-.621 1.3833-1.1134 2.2097-1.4491.8264-.3358 1.7121-.5082 2.6064-.5075.8944-.0007 1.7801.1717 2.6065.5075.8264.3357 1.5772.8281 2.2096 1.4491.6324.6209 1.1339 1.3582 1.4758 2.1696.342.8115.5176 1.6811.5169 2.5593v16.7163c.0007.8781-.1749 1.7478-.5169 2.5592-.3419.8115-.8434 1.5488-1.4758 2.1697s-1.3832 1.1134-2.2096 1.4491-1.7121.5082-2.6065.5075c-.8943.0007-1.78-.1718-2.6064-.5075s-1.5773-.8282-2.2097-1.4491-1.1339-1.3582-1.4758-2.1697c-.3419-.8114-.5175-1.6811-.5168-2.5592z" fill="#e01e5a"/><path d="m23.8848 13.3736c-.8946.0007-1.7805-.1718-2.6071-.5077-.8265-.3359-1.5775-.8286-2.21-1.4498-.6324-.6212-1.1338-1.3588-1.4756-2.17056-.3418-.81175-.5171-1.6817-.5161-2.56007-.0007-.87814.175-1.74781.5169-2.55924.3419-.81144.8434-1.54872 1.4758-2.16966s1.3833-1.113363 2.2097-1.449091c.8264-.335729 1.7121-.50817632 2.6064-.50747688.8943-.00069944 1.78.17174788 2.6064.50747688.8264.335728 1.5773.828151 2.2097 1.449091s1.1339 1.35822 1.4758 2.16966c.3419.81143.5176 1.6811.5168 2.55924v6.69083h-6.806zm0 3.3933c.8943-.0007 1.78.1717 2.6064.5074.8264.3358 1.5773.8282 2.2097 1.4491.6324.621 1.1339 1.3583 1.4758 2.1697s.5176 1.6811.5168 2.5592c.0008.8782-.1749 1.7478-.5168 2.5593-.3419.8114-.8434 1.5487-1.4758 2.1696-.6324.621-1.3833 1.1134-2.2097 1.4491-.8264.3358-1.7121.5082-2.6064.5075h-17.07605c-.89411.0007-1.77959-.1716-2.60581-.5072s-1.57697-.8278-2.20933-1.4484c-.63236-.6207-1.133916-1.3576-1.475995-2.1688-.342079-.8111-.51796906-1.6805-.51761284-2.5584-.00071234-.8781.17491484-1.7478.51683484-2.5592.341919-.8115.843423-1.5488 1.475813-2.1697s1.38327-1.1134 2.20966-1.4491c.8264-.3357 1.7121-.5082 2.60644-.5075h17.07875z" fill="#36c5f0"/><path d="m51.1738 23.4523c-.0007-.8783.175-1.7482.5171-2.5598.342-.8116.8438-1.549 1.4765-2.17.6326-.621 1.3838-1.1133 2.2106-1.4489.8267-.3356 1.7127-.5078 2.6072-.5067.8944-.0007 1.7801.1717 2.6065.5074.8264.3358 1.5772.8282 2.2096 1.4491.6324.621 1.1339 1.3583 1.4758 2.1697.342.8114.5176 1.6811.5169 2.5592.0007.8782-.1749 1.7479-.5169 2.5593-.3419.8114-.8434 1.5487-1.4758 2.1696-.6324.621-1.3832 1.1134-2.2096 1.4491-.8264.3358-1.7121.5082-2.6065.5075h-6.8114v-6.6828zm-3.4044 0c.0007.8782-.1749 1.7479-.5168 2.5593-.342.8114-.8435 1.5487-1.4759 2.1696-.6323.621-1.3832 1.1134-2.2096 1.4491-.8264.3358-1.7121.5082-2.6065.5075-.8945.0011-1.7805-.1711-2.6072-.5067s-1.5779-.8279-2.2106-1.4489-1.1344-1.3584-1.4765-2.17-.5178-1.6815-.5171-2.5599v-16.76682c-.0007-.87837.175-1.74826.5171-2.55987.3421-.8116.8438-1.549 1.4765-2.16998s1.3839-1.113341 2.2106-1.448913 1.7127-.50776152 2.6072-.50671223c.8944-.00069944 1.7801.17174823 2.6065.50747623.8264.335729 1.5773.828149 2.2096 1.449089.6324.62095 1.1339 1.35823 1.4759 2.16966.3419.81143.5175 1.6811.5168 2.55925v16.76952z" fill="#2eb67d"/><path d="m40.9606 50.2474c.8943-.0007 1.78.1717 2.6064.5074.8264.3358 1.5773.8282 2.2097 1.4491.6324.621 1.1339 1.3583 1.4758 2.1697s.5176 1.6811.5168 2.5592c.0011.8784-.1742 1.7484-.516 2.5601s-.8432 1.5493-1.4756 2.1706c-.6325.6212-1.3835 1.1138-2.21 1.4497-.8266.3359-1.7125.5085-2.6071.5078-.8946.0007-1.7805-.1719-2.6071-.5078-.8265-.3359-1.5775-.8285-2.21-1.4497-.6324-.6213-1.1338-1.3589-1.4756-2.1706s-.5171-1.6817-.5161-2.5601v-6.6854zm0-3.3428c-.8943.0007-1.78-.1717-2.6064-.5074-.8264-.3358-1.5773-.8282-2.2097-1.4491-.6324-.621-1.1339-1.3583-1.4758-2.1697s-.5176-1.6811-.5169-2.5592c-.0007-.8782.175-1.7478.5169-2.5593.3419-.8114.8434-1.5487 1.4758-2.1696.6324-.621 1.3833-1.1134 2.2097-1.4491.8264-.3358 1.7121-.5082 2.6064-.5075h17.076c.8944-.0007 1.7801.1717 2.6065.5075.8264.3357 1.5772.8281 2.2096 1.4491.6324.6209 1.1339 1.3582 1.4759 2.1696.3419.8115.5175 1.6811.5168 2.5593.0007.8781-.1749 1.7478-.5168 2.5592-.342.8114-.8435 1.5487-1.4759 2.1697-.6324.6209-1.3832 1.1133-2.2096 1.4491-.8264.3357-1.7121.5081-2.6065.5074z" fill="#ecb22e"/></g></svg>