<svg fill="none" height="64" viewBox="0 0 64 64" width="64" xmlns="http://www.w3.org/2000/svg" xmlns:xlink="http://www.w3.org/1999/xlink"><linearGradient id="a"><stop offset=".016" stop-color="#765af8"/><stop offset=".382" stop-color="#b345f1"/><stop offset=".758" stop-color="#fa3293"/><stop offset=".941" stop-color="#ff318c"/></linearGradient><linearGradient id="b" gradientUnits="userSpaceOnUse" x1=".510171" x2="27.3801" xlink:href="#a" y1="42.8306" y2="7.33806"/><linearGradient id="c" gradientUnits="userSpaceOnUse" x1="2.496" x2="29.323" xlink:href="#a" y1="44.2322" y2="8.79634"/><linearGradient id="d" gradientUnits="userSpaceOnUse" x1="46.4978" x2="31.3362" y1="42.4275" y2="6.44394"><stop offset=".183" stop-color="#765af8"/><stop offset=".238" stop-color="#8655f6"/><stop offset=".345" stop-color="#9f4cf3"/><stop offset=".443" stop-color="#ae47f2"/><stop offset=".522" stop-color="#b345f1"/></linearGradient><linearGradient id="e" gradientUnits="userSpaceOnUse" x1="57.8432" x2="22.5811" y1="52.4243" y2="25.1575"><stop offset=".016" stop-color="#765af8"/><stop offset=".382" stop-color="#b345f1"/></linearGradient><clipPath id="f"><path d="m0 0h64v64h-64z"/></clipPath><g clip-path="url(#f)"><path d="m36.2057 13.8971-3.0171-9.14281-22.3086-4.75429-10.88 12.3429 34.0114 17.3714z" fill="url(#b)"/><path d="m25.6 37.8514-.64-19.0171-24.96-6.4914 6.12571 36.6628 19.47429-.1828z" fill="url(#c)"/><path d="m20.2057 37.4858 1.1886-15.0858 18.1028-18.55995 16.1829 2.92571 8.32 20.75424-8.6857 8.5943-14.1714-2.2857-8.7772 9.2343z" fill="url(#d)"/><path d="m39.4972 3.84005-25.9657 23.03995 5.0285 29.6229 21.5772 7.4971 23.8628-14.2628z" fill="url(#e)"/><path d="m12.2514 12.2514h39.4971v39.4972h-39.4971z" fill="#000"/><g fill="#fff"><path d="m16 44.3429h14.8114v2.4685h-14.8114z"/><path d="m15.817 17.3714h6.6743c3.9315 0 6.3086 2.2857 6.3086 5.6686v.0914c0 3.84-2.9257 5.76-6.6743 5.76h-2.7428v4.9372h-3.5658zm6.4915 8.2286c1.8285 0 2.8343-1.0971 2.8343-2.4686v-.0914c0-1.6457-1.0972-2.4686-2.9258-2.4686h-2.7428v5.0286z"/><path d="m29.7143 31.4514 2.1028-2.56c1.4629 1.1885 3.0172 2.0114 4.9372 2.0114 1.4628 0 2.3771-.5486 2.3771-1.5543v-.0914c0-.9143-.5486-1.3715-3.2914-2.1029-3.2914-.8228-5.4857-1.7371-5.4857-5.0286v-.0914c0-3.0171 2.3771-4.9371 5.76-4.9371 2.3771 0 4.48.7314 6.1257 2.1028l-1.92 2.7429c-1.4629-1.0057-2.9257-1.6457-4.2972-1.6457-1.3714 0-2.1028.64-2.1028 1.4628v.0915c0 1.0971.7314 1.4628 3.5657 2.1942 3.2914.9143 5.2114 2.1029 5.2114 4.9372v.0914c0 3.2914-2.4686 5.12-6.0343 5.12-2.4685-.0914-4.9371-1.0057-6.9485-2.7428z"/></g></g></svg>