<svg fill="none" height="45" viewBox="0 0 44 45" width="44" xmlns="http://www.w3.org/2000/svg" xmlns:xlink="http://www.w3.org/1999/xlink"><linearGradient id="a" gradientUnits="userSpaceOnUse" x1="24.8" x2="1.73336" y1="27.4" y2="43.9333"><stop offset="0" stop-color="#fe5004"/><stop offset=".602538" stop-color="#ffb915"/><stop offset="1" stop-color="#fffc41"/></linearGradient><linearGradient id="b" gradientUnits="userSpaceOnUse" x1="15.6667" x2="15.8" y1="28.8" y2="31.2"><stop offset="0" stop-color="#fd3e00"/><stop offset="1" stop-color="#fd4400" stop-opacity="0"/></linearGradient><linearGradient id="c" gradientUnits="userSpaceOnUse" x1="29.3333" x2="-3.20001" y1="15" y2="43.9333"><stop offset="0" stop-color="#005fc6"/><stop offset=".279756" stop-color="#23a4df"/><stop offset=".465158" stop-color="#3ac2b7"/><stop offset=".640642" stop-color="#60ec7a"/><stop offset=".818668" stop-color="#cffdbd"/><stop offset="1" stop-color="#d0fcb6"/></linearGradient><linearGradient id="d" gradientUnits="userSpaceOnUse" x1="22.7333" x2="19.9333" y1="20.5333" y2="18"><stop offset="0" stop-color="#0061cb"/><stop offset="1" stop-color="#067eea" stop-opacity="0"/></linearGradient><linearGradient id="e" gradientUnits="userSpaceOnUse" x1="43.2" x2=".400028" y1="1.00002" y2="44.8667"><stop offset="0" stop-color="#8e55f1"/><stop offset=".140795" stop-color="#8b48df"/><stop offset=".274905" stop-color="#e04dd9"/><stop offset=".492309" stop-color="#f496c8"/><stop offset=".633104" stop-color="#fad2ba"/><stop offset=".856964" stop-color="#fef7e5"/><stop offset="1" stop-color="#fff5bf"/></linearGradient><linearGradient id="f" gradientUnits="userSpaceOnUse" x1="39" x2="4.06663" y1="19.3334" y2="35.1334"><stop offset="0" stop-color="#f41a73"/><stop offset=".399909" stop-color="#fc50a3"/><stop offset=".584511" stop-color="#fe9485"/><stop offset=".703104" stop-color="#ffaf88"/><stop offset="1" stop-color="#ffc385"/></linearGradient><linearGradient id="g" gradientUnits="userSpaceOnUse" x1="26.4" x2="26.4666" y1="24.2" y2="27.4"><stop offset="0" stop-color="#9b0008"/><stop offset="1" stop-color="#ea115a" stop-opacity="0"/></linearGradient><linearGradient id="h" gradientUnits="userSpaceOnUse" x1="43.2" x2="11.6666" y1="4.60002" y2="25.2"><stop offset="0" stop-color="#231283"/><stop offset=".362865" stop-color="#7053c6"/><stop offset=".466353" stop-color="#7272db"/><stop offset=".634311" stop-color="#399ee9"/><stop offset="1" stop-color="#00cfff"/></linearGradient><linearGradient id="i" gradientUnits="userSpaceOnUse" x1="35.3333" x2="36.7333" y1="15" y2="16.8"><stop offset="0" stop-color="#3f259d" stop-opacity="0"/><stop offset="1" stop-color="#412daa"/></linearGradient><path d="m9.73339 23.8c-7.79997 5.7408-9.333366 14.1334-9.333366 21.1334.355557-2.0889 1.986666-6.9867 5.666666-9.8667 5.46671-4.2783 15.46661-2.8689 26.40001-10.1333 10.9334-7.2645 12-16.73338 10.6-24.00005-.9727 7.01177-4.2923 10.06765-8.8667 12.80005-9.9332 5.9333-16.1332 3.9333-24.46661 10.0666z" fill="url(#a)"/><path d="m9.73339 23.8c-7.79997 5.7408-9.333366 14.1334-9.333366 21.1334.355557-2.0889 1.986666-6.9867 5.666666-9.8667 5.46671-4.2783 15.46661-2.8689 26.40001-10.1333 10.9334-7.2645 12-16.73338 10.6-24.00005-.9727 7.01177-4.2923 10.06765-8.8667 12.80005-9.9332 5.9333-16.1332 3.9333-24.46661 10.0666z" fill="url(#b)"/><path d="m.493286 42.0639c.428011-6.3249 2.481744-13.2899 9.240044-18.2639 4.34437-3.1975 8.10887-4.1845 12.12487-5.2374 2.3436-.6144 4.7729-1.2513 7.453-2.3631-.9778.9338-5.6241 3.1138-9.1287 4.5704-3.4954 1.4528-7.1807 2.9844-10.24913 5.0301-6.15639 4.1042-8.65963 11.245-9.440084 16.2639z" fill="url(#c)"/><path d="m.493286 42.0639c.428011-6.3249 2.481744-13.2899 9.240044-18.2639 4.34437-3.1975 8.10887-4.1845 12.12487-5.2374 2.3436-.6144 4.7729-1.2513 7.453-2.3631-.9778.9338-5.6241 3.1138-9.1287 4.5704-3.4954 1.4528-7.1807 2.9844-10.24913 5.0301-6.15639 4.1042-8.65963 11.245-9.440084 16.2639z" fill="url(#d)"/><path d="m38.4355 19.7418c-.7666.7509-1.6214 1.4231-2.5687 1.9915-4.2667 2.5601-8.8018 3.3856-13.2146 4.189-3.5165.6401-6.9553 1.2661-10.1188 2.7444-7.13282 3.3331-11.53271 10.2657-12.133174 16.2655-.000043.0002-.000086.0005-.000129.0007-.000024-.0011-.000048-.0021-.000073-.0032.000035-.458.006637-.9219.02113-1.3907.036343-.7437.113231-1.5677.240453-2.4464.941673-4.9342 3.502803-11.4466 9.271803-15.2926 2.44219-1.6281 5.27499-2.9307 8.09199-4.127 2.4773-.8133 4.71-1.3195 6.8372-1.8018 3.3485-.7591 6.4357-1.459 9.8042-3.2045 7.0681-3.6626 8.92-11.18909 8.4222-15.61641 1.0568 5.60976.6296 12.50951-4.6535 18.69151z" fill="url(#e)"/><path d="m38.4353 19.7419c-.7666.7509-1.6213 1.4231-2.5685 1.9915-4.2667 2.56-8.8018 3.3856-13.2147 4.1889-3.5164.6401-6.9552 1.2661-10.1187 2.7444-4.1021 1.9169-7.30032 5.0243-9.39177 8.4601 1.84538-2.5931 4.65666-5.4898 8.12507-6.5934 3.3845-1.0769 6.6128-1.1882 9.9667-1.3038.9612-.0331 1.9328-.0666 2.9213-.1233 2.6642-.9698 5.4562-2.2755 8.3119-4.1729 2.4616-1.6355 4.423-3.3828 5.9687-5.1915z" fill="url(#f)"/><path d="m38.4353 19.7419c-.7666.7509-1.6213 1.4231-2.5685 1.9915-4.2667 2.56-8.8018 3.3856-13.2147 4.1889-3.5164.6401-6.9552 1.2661-10.1187 2.7444-4.1021 1.9169-7.30032 5.0243-9.39177 8.4601 1.84538-2.5931 4.65666-5.4898 8.12507-6.5934 3.3845-1.0769 6.6128-1.1882 9.9667-1.3038.9612-.0331 1.9328-.0666 2.9213-.1233 2.6642-.9698 5.4562-2.2755 8.3119-4.1729 2.4616-1.6355 4.423-3.3828 5.9687-5.1915z" fill="url(#g)"/><path d="m43.0889 1.05029c-.0073-.03904-.0148-.078023-.0223-.11694-.9727 7.01177-4.2922 10.06765-8.8666 12.80005-1.7329 1.035-3.3521 1.8287-4.8889 2.4662-.978.9339-5.6241 3.1138-9.1286 4.5703l-.0006.0002c-.7132.2965-1.4343.5962-2.1565.9029 2.4773-.8133 4.7099-1.3195 6.8371-1.8018 3.3486-.7591 6.4357-1.459 9.8042-3.2045 7.0682-3.6626 8.92-11.18909 8.4222-15.61641z" fill="url(#h)"/><path d="m43.0889 1.05029c-.0073-.03904-.0148-.078023-.0223-.11694-.9727 7.01177-4.2922 10.06765-8.8666 12.80005-1.7329 1.035-3.3521 1.8287-4.8889 2.4662-.978.9339-5.6241 3.1138-9.1286 4.5703l-.0006.0002c-.7132.2965-1.4343.5962-2.1565.9029 2.4773-.8133 4.7099-1.3195 6.8371-1.8018 3.3486-.7591 6.4357-1.459 9.8042-3.2045 7.0682-3.6626 8.92-11.18909 8.4222-15.61641z" fill="url(#i)"/></svg>