<svg fill="none" height="64" viewBox="0 0 44 64" width="44" xmlns="http://www.w3.org/2000/svg"><path d="m32.6667 42.6667c5.891 0 10.6666-4.7756 10.6666-10.6667 0-5.891-4.7756-10.6666-10.6666-10.6666-5.8911 0-10.6667 4.7756-10.6667 10.6666 0 5.8911 4.7756 10.6667 10.6667 10.6667z" fill="#19bcfe"/><g clip-rule="evenodd" fill-rule="evenodd"><path d="m11.3334 64c2.829 0 5.5421-1.1239 7.5425-3.1242 2.0004-2.0004 3.1242-4.7135 3.1242-7.5425v-10.6667h-10.6667c-2.82896 0-5.54207 1.1238-7.54246 3.1242s-3.124192 4.7135-3.124192 7.5425 1.123802 5.5421 3.124192 7.5425c2.00039 2.0003 4.7135 3.1242 7.54246 3.1242z" fill="#09cf83"/><path d="m11.3334 42.6667h10.6667v-21.3333h-10.6667c-2.82896 0-5.54207 1.1238-7.54246 3.1242s-3.124192 4.7135-3.124192 7.5424c0 2.829 1.123802 5.5421 3.124192 7.5425s4.7135 3.1242 7.54246 3.1242z" fill="#a259ff"/><path d="m11.3334 21.3333h10.6667v-21.3333h-10.6667c-2.82896 0-5.54207 1.12381-7.54246 3.12419-2.00039 2.00039-3.124192 4.7135-3.124192 7.54251 0 2.8289 1.123802 5.5421 3.124192 7.5424 2.00039 2.0004 4.7135 3.1242 7.54246 3.1242z" fill="#f24e1e"/><path d="m32.6667 21.3333h-10.6667v-21.3333h10.6667c2.8289 0 5.542 1.12381 7.5424 3.12419 2.0004 2.00039 3.1242 4.7135 3.1242 7.54251 0 2.8289-1.1238 5.5421-3.1242 7.5424-2.0004 2.0004-4.7135 3.1242-7.5424 3.1242z" fill="#ff7262"/></g></svg>