<svg fill="none" height="60" viewBox="0 0 60 60" width="60" xmlns="http://www.w3.org/2000/svg"><path clip-rule="evenodd" d="m9.43199 56.4356-6.87872-8.5693c-1.65501-2.0618-2.55327-4.5971-2.55327-7.2066v-31.02973c0-3.90869 3.12717-7.15203 7.16143-7.42747l31.90287-2.1781344c2.3177-.1582406 4.6213.4578154 6.5252 1.7450444l11.209 7.57842c2.0064 1.35657 3.2015 3.57417 3.2015 5.94067v35.2778c0 3.8252-3.0749 6.9923-7.0248 7.2354l-35.4085 2.1796c-3.152.1941-6.1987-1.1339-8.13471-3.5457z" fill="#fff" fill-rule="evenodd"/><g fill="#000"><path d="m20.4963 25.1574v-.4062c0-1.0298.8248-1.8839 1.8877-1.9548l7.7427-.517 10.7075 15.7676v-13.8387l-2.7561-.3674v-.193c0-1.0418.8437-1.9015 1.9202-1.9567l7.045-.3609v1.0139c0 .4759-.3539.883-.839.965l-1.6953.2868v22.4114l-2.1277.7317c-1.7775.6113-3.7564-.0431-4.774-1.5786l-10.3951-15.6861v14.9715l3.1996.6124-.0446.2967c-.1396.9297-.9422 1.6327-1.9131 1.6759l-7.9578.3542c-.1052-.9996.644-1.894 1.6776-2.0026l1.0468-.1099v-19.9621z"/><path clip-rule="evenodd" d="m39.3499 3.93356-31.90284 2.17814c-1.91096.13047-3.39225 1.66679-3.39225 3.51828v31.02982c0 1.7396.59884 3.4298 1.70218 4.8043l6.87871 8.5693c1.1122 1.3855 2.8624 2.1484 4.6731 2.0369l35.4086-2.1796c1.8148-.1117 3.2276-1.5668 3.2276-3.3244v-35.2778c0-1.0873-.5491-2.1062-1.471-2.7295l-11.209-7.57841c-1.1423-.77234-2.5245-1.14197-3.9151-1.04703zm-30.32084 6.18044c-.44371-.32852-.23255-1.01291.32487-1.05289l30.21057-2.16689c.9626-.06904 1.919.19602 2.6975.74754l6.0615 4.29454c.2301.163.1222.515-.1627.5305l-31.9929 1.7399c-.9682.0527-1.9239-.2318-2.6938-.8017zm5.63824 9.5474c0-1.0393.8396-1.8979 1.9134-1.9563l33.8255-1.8422c1.0465-.057 1.9274.7478 1.9274 1.7607v30.5469c0 1.0375-.8367 1.8951-1.9083 1.9561l-33.6114 1.9125c-1.1646.0662-2.1466-.8287-2.1466-1.9561z" fill-rule="evenodd"/></g></svg>