<svg fill="none" height="63" viewBox="0 0 65 63" width="65" xmlns="http://www.w3.org/2000/svg" xmlns:xlink="http://www.w3.org/1999/xlink"><linearGradient id="a" gradientUnits="userSpaceOnUse" x1="32.3737" x2="32.3737" y1=".000122" y2="62.7647"><stop offset="0" stop-color="#fff"/><stop offset="1" stop-color="#fff" stop-opacity="0"/></linearGradient><mask id="b" height="63" maskUnits="userSpaceOnUse" width="65" x="0" y="0"><path d="m45.9135 62.497c.5151.1957 1.0662.2861 1.6187.2654.5526-.0207 1.0949-.152 1.5932-.3857l13.3303-6.25c.6865-.3221 1.2658-.8265 1.6712-1.4552.4054-.6286.6204-1.3561.6203-2.0985v-42.3799c.0001-.74245-.2149-1.46983-.6203-2.09847s-.9847-1.13299-1.6712-1.45505l-13.3301-6.250247c-.7532-.3531724-1.6005-.4694572-2.4245-.3327583-.8241.1366993-1.5841.5196203-2.175 1.0957653l-25.5193 22.68596-11.11606-8.2218c-.50142-.3709-1.12027-.559-1.74916-.5318-.6289.0273-1.22816.2682-1.69381.681l-3.565101 3.1601c-1.175586 1.0419-1.176855 2.844-.003047 3.8875l9.640078 8.5697-9.640078 8.5695c-1.173808 1.0438-1.172539 2.8456.003047 3.8877l3.565101 3.1599c.46562.4128 1.06487.6538 1.69376.6811.6289.0273 1.24776-.1608 1.74921-.5317l11.11606-8.222 25.5193 22.686c.3946.385.867.6859 1.3874.8835zm2.6568-45.4361-19.3634 14.3221 19.3634 14.3219z" fill="#fff"/></mask><g mask="url(#b)" opacity=".78"><path d="m62.4953 6.64928-13.3408-6.258907c-.7534-.353458-1.601-.4699905-2.4254-.3334715-.8243.1365195-1.5848.5193395-2.1761 1.0954885l-43.672901 38.80011c-1.174571 1.0438-1.173047 2.8457.003046 3.8878l3.567385 3.1599c.46604.4129 1.06566.6538 1.69492.6811s1.24849-.1608 1.75033-.5317l52.59212-38.87659c1.7644-1.30408 4.2986-.07793 4.2986 2.07999v-.151c0-.74224-.215-1.46946-.6204-2.09796-.4053-.6285-.9844-1.13275-1.6708-1.45476z" fill="#0065a9"/><path d="m62.4953 56.1159-13.3408 6.259c-.7534.3533-1.601.4698-2.4253.3333-.8244-.1365-1.5849-.5193-2.1762-1.0954l-43.672901-38.8001c-1.174571-1.0436-1.173047-2.8457.003046-3.8875l3.567385-3.1601c.46607-.4129 1.06571-.6538 1.69497-.6811.62926-.0272 1.24847.1609 1.75028.5319l52.59212 38.8763c1.7644 1.3041 4.2986.0779 4.2986-2.0802v.1512c0 .7423-.2151 1.4695-.6204 2.098s-.9845 1.1327-1.6708 1.4547z" fill="#007acc"/><path d="m49.1126 62.3798c-.7536.3532-1.6012.4695-2.4257.3329-.8244-.1366-1.5849-.5195-2.1763-1.0957 1.4932 1.4548 4.0467.4243 4.0467-1.6336v-57.19436c0-2.057928-2.5535-3.088379-4.0467-1.63338.5914-.57619 1.3518-.959108 2.1763-1.095797.8244-.1366895 1.6721-.020397 2.4257.332796l13.3385 6.250251c.6868.32183 1.2664.8261 1.672 1.45476.4056.62867.6208 1.35616.6208 2.09873v42.3801c0 1.5154-.8912 2.8969-2.2928 3.5535l-13.3385 6.25z" fill="#1f9cf0"/><path d="m45.9135 62.4964c.5152.1957 1.0662.286 1.6187.2654.5526-.0207 1.0949-.152 1.5932-.3856l13.33-6.2503c.6866-.322 1.266-.8263 1.6714-1.455.4054-.6286.6205-1.356.6204-2.0985v-42.3799c.0001-.74241-.2149-1.46979-.6203-2.09843s-.9847-1.133-1.6712-1.45505l-13.3306-6.250499c-.7532-.3531164-1.6004-.4693704-2.4244-.3326728-.824.1366978-1.584.5195868-2.1748 1.0956718l-25.5191 22.68628-11.11606-8.2219c-.50142-.3708-1.12027-.559-1.74916-.5317-.6289.0272-1.22816.2681-1.69381.6809l-3.565101 3.1602c-1.175586 1.0418-1.176855 2.8439-.003047 3.8875l9.640078 8.5697-9.640078 8.5694c-1.173808 1.0438-1.172539 2.8457.003047 3.8878l3.565101 3.1598c.46562.4129 1.06487.6538 1.69376.6811.6289.0273 1.24776-.1608 1.74921-.5316l11.11606-8.2221 25.5191 22.686c.3946.3851.8671.686 1.3876.8835zm2.6568-45.4363-19.3634 14.3224 19.3634 14.3219v-28.6441z" fill="url(#a)" fill-opacity=".25"/></g></svg>