<svg fill="none" height="44" viewBox="0 0 56 44" width="56" xmlns="http://www.w3.org/2000/svg"><g clip-rule="evenodd" fill-rule="evenodd"><path d="m8.63147 30.3366-2.92956 1.052-.15729 8.5666 10.14118-3.6416c-3.4783-1.1484-6.0184-3.1691-7.05433-5.977" fill="#fdbd39"/><path d="m10.1646 21.2759-10.1646 3.65 5.70192 6.4626 2.92956-1.0519c-1.03291-2.7998-.39592-5.9646 1.53312-9.0607" fill="#f69833"/><path d="m27.2698 8.91486c-12.9436 4.64784-21.28833 14.23864-18.63831 21.42174l46.87311-16.8313c-2.65-7.18314-15.2911-9.23831-28.2348-4.59044z" fill="#fecf33"/><path d="m36.8663 34.927c12.9437-4.6479 21.304-14.1962 18.6383-21.4218l-46.87312 16.8313c2.66562 7.2257 15.29112 9.2383 28.23482 4.5905z" fill="#ee6723"/><path d="m55.5046 13.5052-46.87312 16.8313c.91784 2.4879 4.41792 3.7136 9.32902 3.7136 4.7878 0 10.9167-1.1641 17.3064-3.4585 12.9437-4.6479 22.0504-12.173 20.2377-17.0864" fill="#f69833"/><path d="m46.1756 9.79156c-4.7879 0-10.9167 1.16414-17.3064 3.45854-12.9437 4.6479-22.05042 12.173-20.23773 17.0864l46.87313-16.8313c-.9178-2.4879-4.4179-3.71364-9.329-3.71364" fill="#fdbd39"/><g fill="#ee6723"><path d="m43.587 40.4088h-.0003c-1.3791 0-3.4137-1.2245-6.0473-3.6394-3.1157-2.857-6.6847-7.0416-10.0498-11.7828-3.3649-4.7411-6.13-9.4811-7.7857-13.3469-1.8039-4.2127-2.0611-6.80296-.7645-7.69885.2843-.19623.6271-.29565 1.0186-.29565 1.0547 0 3.1099.77188 6.9102 4.44933l.0831.08037-.0113.1143c-.026.26419-.0499.53074-.0712.79236l-.0424.51949-.3728-.36922c-4.0947-4.05486-5.8972-4.49262-6.4822-4.49262-.1668 0-.2996.03335-.3949.09916-.5624.38846-.5986 2.29108 1.1503 6.37483 1.6262 3.7969 4.351 8.4652 7.6725 13.1449 3.3216 4.6801 6.836 8.8029 9.8961 11.6088 3.2997 3.0256 4.7867 3.3523 5.2728 3.3523.1679 0 .3043-.0354.4055-.1054.5933-.4097.594-2.4479-1.3564-6.8434l-.0895-.2018.196-.1055c.196-.1055.3856-.2094.5634-.3087l.2348-.1312.1082.2438c1.383 3.1146 2.6757 7.0731.9806 8.2444-.2858.1973-.6302.2974-1.0238.2974zm-.0003-.4805h.0003l-.0002.2402z"/><path d="m37.1805 34.7959-.0197.2394c-.3272 3.9801-1.1889 8.765-3.4354 8.9587-.0452.004-.0921.006-.1389.006-1.5262 0-2.97-2.1493-4.2914-6.3883-1.2502-4.0104-2.2203-9.395-2.7317-15.1618-.5114-5.7656-.5038-11.2345.0216-15.39919.5725-4.53825 1.6626-6.908267 3.2398-7.04430771.0466-.00422486.0949-.00640229.1426-.00640229 1.1071 0 2.7757 1.23223 4.4838 6.97173l-1.1153.21161c-.5703-1.91799-1.1919-3.47794-1.8089-4.54985-.5708-.99148-1.1257-1.5375-1.5627-1.5375-.0144 0-.0289.00059-.0431.00179-.6836.05902-1.6792 1.68894-2.2342 6.08825-.516 4.08997-.5222 9.47697-.0175 15.16857.5049 5.6924 1.4592 10.9965 2.687 14.935.5499 1.764 1.153 3.2177 1.7442 4.2042.5451.9097 1.0727 1.4107 1.4854 1.4107.0142 0 .0284-.0007.0425-.0019.6541-.0563 1.8867-1.7524 2.4055-7.7199z"/></g></g></svg>