<svg fill="none" height="49" viewBox="0 0 194 49" width="194" xmlns="http://www.w3.org/2000/svg" xmlns:xlink="http://www.w3.org/1999/xlink"><clipPath id="a"><path d="m0 0h194v49h-194z"/></clipPath><g clip-path="url(#a)" fill="#fff" fill-opacity=".2"><path d="m61.9864 38.4028 2.4201-5.5916c2.6152 1.9415 6.089 2.9513 9.5242 2.9513 2.5372 0 4.1377-.971 4.1377-2.4463-.0391-4.116-15.1843-.8933-15.3014-11.2221-.039-5.2419 4.6454-9.2802 11.2808-9.2802 3.9425 0 7.885.9706 10.6954 3.1838l-2.264 5.7082c-2.5762-1.631-5.7768-2.7957-8.8217-2.7957-2.0688 0-3.4348.9706-3.4348 2.2133.039 4.0384 15.3014 1.8251 15.4575 11.6877 0 5.3587-4.567 9.1253-11.1247 9.1253-4.8015 0-9.2123-1.1263-12.5691-3.5337zm92.8626-7.6108 6.675 3.6889c-2.499 4.4654-7.261 7.4556-12.765 7.4556-8.08 0-14.638-6.5234-14.638-14.5613s6.558-14.5613 14.638-14.5613c5.465 0 10.266 3.0286 12.765 7.4555l-6.675 3.6886c-1.21-2.0968-3.474-3.5333-6.09-3.5333-3.864 0-6.987 3.1062-6.987 6.9505 0 3.8442 3.123 6.9504 6.987 6.9504 2.616 0 4.88-1.4368 6.089-3.5336zm-65.8121-30.05436h8.3534v40.65496h-8.3534zm75.7651 0h8.354v23.88036l9.446-11.2218h10.227l-11.671 13.5127 12.608 14.4837h-10.696l-9.914-12.1924v12.1924h-8.354zm-42.586 30.13236v-6.8732c-1.21-2.0192-3.708-3.5721-6.518-3.5721-3.865 0-6.987 3.1062-6.987 6.9505 0 3.8442 3.122 6.9504 6.987 6.9504 2.81 0 5.308-1.4756 6.518-3.456zm0-17.4734h8.354v27.9575h-8.354v-3.3003c-1.366 2.2909-4.762 3.883-8.314 3.883-7.339 0-13.116-6.5234-13.116-14.6001s5.777-14.5224 13.116-14.5224c3.552 0 6.948 1.5921 8.314 3.883v-3.3015z"/><path d="m10.3442 30.8308c0 2.8345-2.303 5.1258-5.15275 5.1258-.67683.0006-1.34715-.1315-1.97258-.3889s-1.1937-.6349-1.67228-1.111c-.47857-.4761-.858059-1.0414-1.116738-1.6636-.258678-.6222-.3914693-1.289-.3907715-1.9623 0-2.8345 2.3029895-5.1254 5.1523695-5.1254h5.15275zm2.5762 0c0-2.8345 2.303-5.1254 5.1523-5.1254 2.8494 0 5.1528 2.2909 5.1528 5.1254v12.8139c0 2.8344-2.303 5.1258-5.1528 5.1258-.6768.0006-1.347-.1316-1.9724-.389s-1.1936-.635-1.6722-1.1111c-.4785-.4761-.858-1.0414-1.1166-1.6635-.2587-.6222-.3914-1.289-.3907-1.9622v-12.8139z"/><path d="m18.0727 10.2512c-.6768.0006-1.3471-.1316-1.9725-.389s-1.1936-.63495-1.6721-1.11105c-.4786-.4761-.858-1.0414-1.1167-1.66355-.2586-.62216-.3914-1.28894-.3907-1.9622-.0004-2.83446 2.3026-5.1254 5.152-5.1254s5.1527 2.29094 5.1527 5.1254v5.1258zm0 2.6015c2.8494 0 5.1527 2.2909 5.1527 5.1254s-2.303 5.1258-5.1527 5.1258h-12.92034c-.67683.0006-1.34715-.1315-1.97258-.3889s-1.1937-.6349-1.67227-1.111c-.47858-.4761-.858064-1.0414-1.116743-1.6636s-.39146971-1.289-.39077189-1.9623c0-2.8345 2.30299489-5.125 5.15236489-5.125h12.92074z"/><path d="m38.7219 17.9781c0-2.8345 2.303-5.1254 5.1524-5.1254s5.1527 2.2909 5.1527 5.1254-2.303 5.1258-5.1527 5.1258h-5.1524zm-2.5765 0c0 2.8345-2.3027 5.1258-5.1524 5.1258-.6768.0006-1.3472-.1315-1.9726-.3889s-1.1937-.6349-1.6723-1.111c-.4785-.4761-.858-1.0414-1.1167-1.6636s-.3915-1.289-.3908-1.9623v-12.8527c0-2.83446 2.303-5.1254 5.1524-5.1254s5.1527 2.29094 5.1527 5.1254v12.8531z"/><path d="m30.993 38.5193c2.8494 0 5.1527 2.2909 5.1527 5.1254 0 2.8344-2.303 5.1258-5.1527 5.1258-.6768.0006-1.3472-.1315-1.9726-.3889s-1.1937-.6349-1.6723-1.111c-.4785-.4761-.858-1.0415-1.1167-1.6636-.2587-.6222-.3915-1.289-.3908-1.9623v-5.1254zm0-2.5631c-.6768.0006-1.3471-.1315-1.9725-.3888-.6254-.2574-1.1937-.6349-1.6722-1.111-.4786-.476-.8581-1.0413-1.1168-1.6634-.2587-.6222-.3915-1.2889-.3909-1.9622 0-2.8345 2.303-5.1254 5.1524-5.1254h12.9207c2.8494 0 5.1524 2.2909 5.1524 5.1254s-2.303 5.1258-5.1528 5.1258h-12.9203z"/></g></svg>