<svg fill="none" height="44" viewBox="0 0 194 44" width="194" xmlns="http://www.w3.org/2000/svg" xmlns:xlink="http://www.w3.org/1999/xlink"><clipPath id="a"><path d="m0 0h194v44h-194z"/></clipPath><g clip-path="url(#a)" fill="#fff" fill-opacity=".2"><path d="m112.516 17.1961h-7.637v.8041c2.389 0 2.773.508 2.773 3.5147v5.4203c0 3.0063-.384 3.5568-2.773 3.5568-1.834-.2538-3.071-1.2282-4.778-3.0913l-1.9624-2.1168c2.6444-.4664 4.0524-2.1173 4.0524-3.9807 0-2.3283-2.004-4.1067-5.759-4.1067h-7.5084v.8037c2.3887 0 2.7729.508 2.7729 3.5147v5.4203c0 3.0063-.3842 3.5568-2.7729 3.5568v.8044h8.4894v-.8048c-2.3886 0-2.7724-.5501-2.7724-3.5564v-1.5242h.7248l4.7356 5.8854h12.415c6.101 0 8.746-3.2176 8.746-7.0716 0-3.8532-2.645-7.0287-8.746-7.0287zm-17.8751 6.9016v-5.6312h1.7487c1.9195 0 2.7732 1.3125 2.7732 2.837 0 1.4821-.8537 2.7942-2.7732 2.7942zm18.0031 5.8863h-.299c-1.535 0-1.748-.381-1.748-2.329v-9.1885h2.047c4.437 0 5.247 3.2176 5.247 5.7162 0 2.5829-.81 5.8013-5.247 5.8013zm-47.4823-4.3188 2.9437-8.6387c.8537-2.4982.4694-3.2176-2.261-3.2176v-.8473h8.0204v.8473c-2.6876 0-3.3272.6348-4.3938 3.7261l-4.8641 14.4812h-.5543l-4.3521-13.2541-4.437 13.2541h-.5547l-4.7348-14.4812c-1.0239-3.0913-1.7066-3.7261-4.1813-3.7261v-.8473h9.4712v.8473c-2.5171 0-3.2003.5927-2.3038 3.2176l2.8581 8.6383 4.3089-12.7032h.8109zm14.5045 6.1814c-4.6928 0-8.5322-3.4297-8.5322-7.6221 0-4.1492 3.8398-7.5797 8.5322-7.5797 4.6931 0 8.5322 3.4305 8.5322 7.5797 0 4.1924-3.8391 7.6221-8.5322 7.6221zm0-13.8882c-3.9247 0-5.2899 3.514-5.2899 6.2664 0 2.7954 1.3652 6.2672 5.2899 6.2672 3.9679 0 5.3331-3.4718 5.3331-6.2672 0-2.7524-1.3652-6.2664-5.3331-6.2664z"/><path d="m131.799 30.4495v.8469h-9.77v-.8469c2.859 0 3.371-.7198 3.371-4.9547v-6.7741c0-4.2353-.512-4.9122-3.371-4.9122v-.8473h8.831c4.394 0 6.826 2.2444 6.826 5.2511 0 2.922-2.432 5.2081-6.826 5.2081h-2.432v2.074c0 4.2353.512 4.9551 3.371 4.9551zm-.939-15.9641h-2.432v7.3683h2.432c2.389 0 3.499-1.6513 3.499-3.6414 0-2.0323-1.11-3.7269-3.499-3.7269zm36.135 12.8307-.213.7623c-.384 1.3971-.854 1.9055-3.883 1.9055h-.598c-2.217 0-2.602-.5084-2.602-3.5143v-1.948c3.328 0 3.584.2963 3.584 2.4986h.811v-6.3101h-.811c0 2.2019-.256 2.4982-3.584 2.4982v-4.7422h2.346c3.03 0 3.499.5084 3.883 1.9055l.214.8041h.682l-.298-3.98h-12.544v.8041c2.389 0 2.774.508 2.774 3.5147v5.4203c0 2.7502-.327 3.4429-2.21 3.5418-1.79-.2715-3.019-1.2407-4.701-3.0762l-1.963-2.1169c2.646-.4664 4.054-2.1173 4.054-3.9807 0-2.3283-2.006-4.1067-5.76-4.1067h-7.508v.8037c2.388 0 2.773.508 2.773 3.5147v5.4203c0 3.0063-.384 3.5568-2.773 3.5568v.8044h8.49v-.8047c-2.389 0-2.773-.5502-2.773-3.5565v-1.5238h.725l4.735 5.8854h17.534l.257-3.9799h-.641zm-22.611-3.2184v-5.6312h1.749c1.92 0 2.774 1.3125 2.774 2.837 0 1.4821-.854 2.7942-2.774 2.7942zm31.271 7.7489c-1.706 0-3.2-.889-3.84-1.44-.213.2121-.597.8473-.682 1.44h-.811v-5.843h.854c.341 2.7942 2.303 4.4459 4.821 4.4459 1.365 0 2.474-.7619 2.474-2.0323 0-1.1007-.981-1.948-2.73-2.752l-2.432-1.1433c-1.707-.8051-2.987-2.2026-2.987-4.0653 0-2.0322 1.92-3.7682 4.565-3.7682 1.409 0 2.602.5081 3.328 1.1008.213-.1693.427-.6356.555-1.144h.811v4.9975h-.896c-.3-1.9905-1.408-3.6418-3.669-3.6418-1.195 0-2.305.6777-2.305 1.7367 0 1.1007.897 1.693 2.945 2.6249l2.345 1.1433c2.049.9736 2.859 2.5411 2.859 3.8111 0 2.6674-2.347 4.5301-5.205 4.5301zm13.14 0c-1.707 0-3.2-.889-3.84-1.44-.213.2121-.597.8473-.682 1.44h-.81v-5.843h.852c.341 2.7942 2.304 4.4459 4.821 4.4459 1.365 0 2.475-.7619 2.475-2.0323 0-1.1007-.981-1.948-2.731-2.752l-2.432-1.1433c-1.706-.8051-2.986-2.2026-2.986-4.0653 0-2.0322 1.92-3.7682 4.565-3.7682 1.408 0 2.602.5081 3.328 1.1008.213-.1693.426-.6356.554-1.144h.811v4.9975h-.896c-.299-1.9905-1.408-3.6418-3.669-3.6418-1.194 0-2.304.6777-2.304 1.7367 0 1.1007.896 1.693 2.944 2.6249l2.346 1.1433c2.048.9736 2.858 2.5411 2.858 3.8111 0 2.6674-2.346 4.5301-5.204 4.5301z"/><path d="m3.12825 21.8432c0 7.4176 4.3434 13.8273 10.64125 16.8651l-9.00665-24.4914c-1.07968 2.3997-1.6367 4.9986-1.6346 7.6267zm31.62655-.9455c0-2.3158-.8381-3.9197-1.5573-5.1683-.9571-1.5433-1.854-2.8506-1.854-4.3939 0-1.72281 1.3163-3.32637 3.1703-3.32637.0837 0 .1629.01053.2448.01504-3.359-3.05443-7.8343-4.91897-12.7498-4.91897-6.596 0-12.39898 3.35866-15.77503 8.4465.44332.0128.86049.0222 1.21515.0222 1.97486 0 5.03188-.2381 5.03188-.2381 1.0177-.0594 1.1375 1.4242.1212 1.5438 0 0-1.023.1196-2.1612.1786l6.8756 20.2976 4.1316-12.299-2.9415-7.999c-1.0166-.0594-1.9797-.179-1.9797-.179-1.0178-.059-.8981-1.6031.1189-1.5433 0 0 3.1184.2376 4.9736.2376 1.9741 0 5.0318-.2376 5.0318-.2376 1.0181-.0598 1.1379 1.4237.1209 1.5433 0 0-1.0249.1196-2.1609.1787l6.823 20.1441 1.8831-6.2465c.8162-2.5915 1.4376-4.453 1.4376-6.0574zm-12.4149 2.5848-5.6646 16.3375c1.7319.5063 3.528.7634 5.3335.7634 2.1354.0007 4.2555-.3585 6.2697-1.0624-.0522-.0819-.0971-.1682-.1341-.258zm16.2358-10.6296c.0811.5968.1273 1.2373.1273 1.927 0 1.9014-.3581 4.0389-1.4361 6.7117l-5.7669 16.5496c5.6131-3.2489 9.3885-9.2844 9.3885-16.1973.0004-3.2582-.8381-6.3217-2.3128-8.991zm-16.5669-12.8529c-12.13526 0-22.0088 9.79884-22.0088 21.8432 0 12.0462 9.87354 21.8447 22.0088 21.8447 12.1352 0 22.0099-9.7985 22.0099-21.8447 0-12.04436-9.8747-21.8432-22.0099-21.8432zm0 42.6864c-11.5786 0-20.99977-9.3502-20.99977-20.8432 0-11.4919 9.42077-20.84173 20.99977-20.84173 11.5786 0 20.999 9.34983 20.999 20.84173 0 11.493-9.4204 20.8432-20.999 20.8432z"/></g></svg>