<svg fill="none" height="42" viewBox="0 0 193 42" width="193" xmlns="http://www.w3.org/2000/svg" xmlns:xlink="http://www.w3.org/1999/xlink"><clipPath id="a"><path d="m0 0h193v42h-193z"/></clipPath><g clip-path="url(#a)" fill="#fff" fill-opacity=".2"><path d="m192.953 18.8756v-3.4372h-4.214v-5.3431l-.142.0443-3.958 1.2264-.078.024v4.0488h-6.247v-2.255c0-1.05.232-1.8541.689-2.3902.453-.5296 1.102-.79873 1.93-.79873.595 0 1.211.14203 1.831.42233l.156.0698v-3.61961l-.073-.0271c-.579-.21077-1.366-.31691-2.341-.31691-1.229 0-2.346.27109-3.32.80792-.974.5376-1.741 1.30506-2.278 2.28137-.535.97473-.806 2.10073-.806 3.34663v2.4795h-2.935v3.4372h2.935v14.4796h4.212v-14.48h6.247v9.2018c0 3.7899 1.765 5.7108 5.245 5.7108.572 0 1.174-.0683 1.789-.2012.626-.1363 1.051-.2726 1.302-.4184l.056-.0329v-3.4692l-.172.1146c-.228.155-.513.2806-.847.3741-.335.0955-.615.1436-.832.1436-.815 0-1.418-.2226-1.793-.6617-.379-.4429-.57-1.218-.57-2.3023v-8.4592zm-31.193 11.424c-1.528 0-2.734-.514-3.583-1.5254-.855-1.0168-1.288-2.4662-1.288-4.3077 0-1.8995.433-3.3867 1.288-4.4214.85-1.0279 2.044-1.5494 3.549-1.5494 1.461 0 2.624.4982 3.456 1.4814.837.9889 1.262 2.4639 1.262 4.386 0 1.9453-.4 3.4401-1.187 4.4397-.783.9924-1.959 1.4968-3.497 1.4968zm.188-15.2926c-2.917 0-5.234.8656-6.885 2.5731-1.651 1.7078-2.488 4.0705-2.488 7.0243 0 2.8052.817 5.0617 2.429 6.7055 1.611 1.6448 3.804 2.478 6.517 2.478 2.828 0 5.099-.8782 6.75-2.609 1.651-1.7296 2.487-4.0702 2.487-6.9548 0-2.8491-.785-5.1225-2.333-6.7555-1.55-1.6334-3.729-2.4616-6.477-2.4616zm-16.165 0c-1.984 0-3.625.5139-4.879 1.5273-1.261 1.0194-1.901 2.3569-1.901 3.9751 0 .8411.138 1.5883.41 2.2222.273.6357.697 1.1954 1.259 1.6654.558.4659 1.419.9542 2.56 1.451.959.3997 1.675.738 2.129 1.0045.445.2612.76.5239.938.7797.173.2501.261.5926.261 1.0156 0 1.2039-.89 1.7892-2.721 1.7892-.679 0-1.454-.1432-2.303-.4265-.843-.2791-1.638-.6877-2.358-1.2115l-.175-.1267v4.1076l.064.0305c.596.2787 1.348.5132 2.233.6984.885.1851 1.687.2794 2.385.2794 2.153 0 3.887-.5166 5.152-1.5364 1.273-1.0263 1.919-2.3951 1.919-4.0698 0-1.2077-.348-2.2432-1.032-3.0786-.68-.8285-1.86-1.5891-3.507-2.2615-1.311-.533-2.151-.9755-2.498-1.3154-.334-.3283-.504-.7922-.504-1.3799 0-.5211.21-.9385.64-1.2768.433-.3398 1.036-.5127 1.792-.5127.702 0 1.42.1122 2.134.3321.714.2204 1.341.5151 1.864.8756l.172.1191v-3.8965l-.066-.029c-.483-.2096-1.119-.3887-1.893-.5345-.769-.144-1.467-.2169-2.075-.2169zm-17.761 15.2922c-1.529 0-2.734-.5136-3.584-1.525-.855-1.0168-1.287-2.4658-1.287-4.3077 0-1.8995.433-3.3867 1.288-4.4214.849-1.0279 2.043-1.5494 3.549-1.5494 1.46 0 2.623.4982 3.456 1.4814.836.9889 1.261 2.4639 1.261 4.386 0 1.9453-.399 3.4401-1.187 4.4397-.782.9924-1.958 1.4968-3.496 1.4968zm.188-15.2922c-2.918 0-5.235.8656-6.886 2.5731-1.65 1.7078-2.488 4.0705-2.488 7.0243 0 2.8063.818 5.0617 2.429 6.7055 1.612 1.6448 3.805 2.478 6.518 2.478 2.827 0 5.098-.8782 6.749-2.609 1.651-1.7296 2.488-4.0702 2.488-6.9548 0-2.8491-.785-5.1225-2.334-6.7555-1.55-1.6334-3.729-2.4616-6.476-2.4616zm-15.768 3.5345v-3.1031h-4.161v17.9172h4.161v-9.1651c0-1.5586.349-2.8388 1.037-3.806.68-.9557 1.585-1.4394 2.691-1.4394.375 0 .796.0622 1.251.1863.451.1229.778.2566.971.3971l.174.1283v-4.2489l-.067-.0294c-.388-.1669-.936-.2509-1.63-.2509-1.045 0-1.981.3402-2.782 1.0103-.704.5888-1.212 1.3963-1.601 2.4036zm-11.612-3.5345c-1.9092 0-3.6119.4146-5.0605 1.2317-1.4513.819-2.5734 1.9889-3.3368 3.4761-.7603 1.4838-1.1459 3.2164-1.1459 5.1492 0 1.6926.3739 3.2462 1.1135 4.6154.74 1.3715 1.7879 2.4444 3.1136 3.1882 1.3243.7434 2.8543 1.1206 4.5491 1.1206 1.977 0 3.666-.4009 5.019-1.1901l.055-.0321v-3.8613l-.175.1295c-.623.4572-1.309.819-2.036 1.0736-.735.2597-1.406.3914-1.994.3914-1.6319 0-2.9426-.5178-3.8944-1.5376-.9537-1.0217-1.437-2.4558-1.437-4.2611 0-1.8163.5044-3.2874 1.4981-4.3733.9902-1.0821 2.3031-1.6312 3.9023-1.6312 1.368 0 2.7.4689 3.961 1.3956l.175.1283v-4.0683l-.057-.0324c-.474-.2688-1.121-.4911-1.925-.6594-.799-.168-1.582-.2528-2.326-.2528zm-12.4096.4314h-4.1608v17.9172h4.1612v-17.9168zm-2.0378-7.6325c-.6845 0-1.2816.23597-1.7728.70408-.4927.46963-.7426 1.06031-.7426 1.75752 0 .6861.2469 1.2661.7351 1.7227.4847.4556 1.0837.6866 1.7803.6866s1.2979-.231 1.7887-.6858c.4938-.4574.7445-1.0374.7445-1.7235 0-.67316-.2439-1.25811-.7242-1.73881-.4798-.47957-1.0882-.72279-1.809-.72279zm-10.3813 6.3107v19.239h4.246v-25.00102h-5.8767l-7.4704 18.56972-7.2496-18.56972h-6.1164v25.00102h3.9904v-19.2409h.1372l7.6552 19.2406h3.0115l7.5353-19.2387h.1372z"/><path d="m19.574 19.8267h-19.574v-19.8267h19.574z"/><path d="m41.1859 19.8267h-19.5737v-19.8267h19.5737z"/><path d="m19.5733 41.7251h-19.5733v-19.8263h19.5733z"/><path d="m41.1859 41.7251h-19.5737v-19.8263h19.5737z"/></g></svg>