<svg fill="none" height="51" viewBox="0 0 157 51" width="157" xmlns="http://www.w3.org/2000/svg" xmlns:xlink="http://www.w3.org/1999/xlink"><clipPath id="a"><path d="m0 0h157v51h-157z"/></clipPath><g clip-path="url(#a)" fill="#fff" fill-opacity=".2"><path d="m152.11 31.1682 4.356 2.8745c-1.414 2.0613-4.795 5.5979-10.641 5.5979-7.258 0-12.664-5.5599-12.664-12.6328 0-7.5265 5.463-12.6326 12.053-12.6326 6.629 0 9.876 5.2193 10.927 8.0371l.573 1.4374-17.077 6.997c1.298 2.5342 3.323 3.8202 6.188 3.8202 2.866 0 4.852-1.3995 6.285-3.4987zm-13.39-4.5572 11.404-4.6902c-.631-1.5694-2.503-2.6851-4.738-2.6851-2.846 0-6.8 2.4963-6.666 7.3753z"/><path d="m124.927 1.49686h5.501v36.99014h-5.501v-36.99045z"/><path d="m116.255 15.3586h5.31v22.4664c0 9.323-5.558 13.162-12.13 13.162-6.189 0-9.9134-4.1225-11.3081-7.4697l4.8711-2.0048c.878 2.0612 2.999 4.501 6.437 4.501 4.222 0 6.82-2.5909 6.82-7.432v-1.8154h-.191c-1.261 1.5127-3.668 2.8743-6.724 2.8743-6.38 0-12.2259-5.5032-12.2259-12.5946 0-7.1297 5.8459-12.6893 12.2259-12.6893 3.037 0 5.463 1.3427 6.724 2.8178h.191v-1.8154zm.382 11.6872c0-4.4631-2.999-7.7159-6.82-7.7159-3.858 0-7.106 3.2528-7.106 7.7159 0 4.406 3.248 7.602 7.106 7.602 3.821.0192 6.82-3.196 6.82-7.602z"/><path d="m66.9136 26.9512c0 7.2808-5.7305 12.6325-12.7603 12.6325-7.0294 0-12.7602-5.3705-12.7602-12.6325 0-7.3185 5.7308-12.6514 12.7602-12.6514 7.0298 0 12.7603 5.3329 12.7603 12.6514zm-5.5778 0c0-4.5384-3.324-7.6591-7.1825-7.6591-3.8584 0-7.1824 3.1207-7.1824 7.6591 0 4.5007 3.324 7.6591 7.1824 7.6591 3.8588 0 7.1825-3.1584 7.1825-7.6591z"/><path d="m94.7841 27.0078c0 7.2808-5.7308 12.6325-12.7603 12.6325-7.0297 0-12.7602-5.352-12.7602-12.6325 0-7.3185 5.7305-12.6326 12.7602-12.6326 7.0295 0 12.7603 5.2952 12.7603 12.6326zm-5.5971 0c0-4.5384-3.3237-7.6591-7.1825-7.6591-3.8584 0-7.1824 3.1207-7.1824 7.6591 0 4.5007 3.324 7.6591 7.1824 7.6591 3.8778 0 7.1825-3.1772 7.1825-7.6591z"/><path d="m20.4189 34.0995c-8.004 0-14.26926-6.392-14.26926-14.3158 0-7.9235 6.26526-14.31551 14.26926-14.31551 4.3171 0 7.4688 1.683 9.7993 3.83896l3.8397-3.80102c-3.2473-3.08246-7.5835-5.4278524-13.639-5.4278524-10.96459.0003036-20.191102 8.8509224-20.191102 19.7054224 0 10.8551 9.226512 19.7054 20.191102 19.7054 5.9218 0 10.3917-1.9289 13.8874-5.5219 3.5911-3.5555 4.699-8.548 4.699-12.5949 0-1.2671-.1527-2.5719-.3248-3.5363h-18.2616v5.2572h13.0086c-.3821 3.2908-1.4327 5.5411-2.98 7.0726-1.872 1.8725-4.8326 3.9337-10.0286 3.9337z"/></g></svg>