<svg fill="none" height="38" viewBox="0 0 38 38" width="38" xmlns="http://www.w3.org/2000/svg"><rect fill="#ff6e30" height="38" rx="8" width="38"/><g clip-rule="evenodd" fill="#fff" fill-rule="evenodd"><path d="m19.9645 12.4359c-.3325 0-.6556.041-.9645.1183.1988-1.7936.9148-3.43022 1.9963-4.75928 4.3008.50972 7.6369 4.16968 7.6369 8.60798v6.3265c-.1727.0097-.3468.0146-.522.0146-3.4406 0-6.4403-1.8957-8.0084-4.7017h3.8287v-1.6394c0-2.1909-1.7761-3.967-3.967-3.967z"/><path d="m9.25641 16.9507c0-5.3257 4.31739-9.64308 9.64309-9.64308 2.6628 0 5.0736 1.07933 6.8186 2.82438-1.6086-1.60864-3.783-2.65156-6.1991-2.80476-1.625 1.79851-2.6146 4.18226-2.6146 6.79706 0 .1951.0055.3888.0164.5812-.6218.5483-1.014 1.351-1.014 2.2452v.665h5.9853l-4.3707.0001c1.4231 3.881 5.1505 6.6503 9.5248 6.6503.5084 0 1.008-.0374 1.4963-.1096v4.0998h-6.6504v-3.9902h-5.9853v3.9902h-6.65039v-7.3154z"/></g></svg>