<svg fill="none" height="22" viewBox="0 0 26 22" width="26" xmlns="http://www.w3.org/2000/svg"><g fill="#fff" fill-opacity=".38"><path d="m15.5 12.25h-1.25v-1.25c0-.3315-.1317-.6495-.3661-.8839s-.5524-.3661-.8839-.3661-.6495.1317-.8839.3661-.3661.5524-.3661.8839v1.25h-1.25c-.3315 0-.64946.1317-.88388.3661s-.36612.5524-.36612.8839.1317.6495.36612.8839.55238.3661.88388.3661h1.25v1.25c0 .3315.1317.6495.3661.8839s.5524.3661.8839.3661.6495-.1317.8839-.3661.3661-.5524.3661-.8839v-1.25h1.25c.3315 0 .6495-.1317.8839-.3661s.3661-.5524.3661-.8839-.1317-.6495-.3661-.8839-.5524-.3661-.8839-.3661z"/><path d="m22.375 4.81249h-8.75l-3.2875-3.975001c-.1163-.143392-.263-.259235-.42938-.339203-.16642-.079968-.34849-.122076-.53312-.123297h-5.75c-.81674-.010027-1.60417.303993-2.18988.873301-.585704.56931-.921954 1.3475-.93512 2.1642v15.17501c.013166.8167.349416 1.5949.93512 2.1642.58571.5693 1.37314.8833 2.18988.8733h18.75c.8167.01 1.6042-.304 2.1899-.8733s.9219-1.3475.9351-2.1642v-10.73751c-.0132-.8167-.3494-1.59489-.9351-2.1642s-1.3732-.88333-2.1899-.8733zm.625 13.75001c-.0047.0767-.0247.1517-.0589.2205s-.0818.1301-.1401.1802-.126.088-.1991.1115c-.0732.0235-.1504.0321-.2269.0253h-18.75c-.07654.0068-.15368-.0018-.22685-.0253s-.14089-.0614-.19915-.1115c-.05827-.0501-.1059-.1114-.14008-.1802s-.05421-.1438-.05892-.2205v-15.15001c.00471-.07671.02474-.15169.05892-.22052.03418-.06882.08181-.1301.14008-.18021.05826-.05011.12598-.08803.19915-.11152s.15031-.03208.22685-.02525h5.1625l3.25 3.975c.1163.14339.263.25923.4294.3392s.3485.12208.5331.1233h9.375c.0765-.00683.1537.00176.2269.02525.0731.02349.1408.06141.1991.11152s.1059.11139.1401.18022c.0342.06882.0542.1438.0589.22051z"/></g></svg>