<svg fill="none" height="97" viewBox="0 0 101 97" width="101" xmlns="http://www.w3.org/2000/svg" xmlns:xlink="http://www.w3.org/1999/xlink"><linearGradient id="a" gradientUnits="userSpaceOnUse" x1="66.9416" x2="-251.985" y1="2.11653" y2="320.507"><stop offset="0" stop-color="#fcfcfc" stop-opacity="0"/><stop offset="1" stop-color="#fff" stop-opacity=".5"/></linearGradient><path d="m43.5006 6.57672 5.4327 7.97568c-2.443 1.4447-5.4265 3.9366-8.9505 7.4759-3.3118 3.4365-6.4455 7.3761-9.4012 11.8186s-5.0968 9.08-6.4235 13.9123c1.2114.0681 2.2381.1603 3.08.2765 1.054.0134 2.0533.1843 2.9978.5126 3.4635 1.2038 5.9655 3.3968 7.5062 6.579 1.7528 3.0794 1.9179 6.6657.4952 10.7589-1.5868 4.5654-4.2108 7.7999-7.872 9.7034-3.6065 1.7461-7.4563 1.9078-11.5495.4852-5.9822-2.0793-9.78163-5.8701-11.39811-11.3725-1.61648-5.5023-1.33037-11.4021.85833-17.6992 1.53209-4.408 3.96408-9.1208 7.29608-14.1383 3.5441-5.1203 7.718-10.0217 12.5215-14.7042 4.8583-4.8399 9.9939-8.70124 15.407-11.58388zm43.4503 15.10208 5.4327 7.9756c-2.443 1.4447-5.4265 3.9367-8.9505 7.4759-3.3118 3.4366-6.4455 7.3761-9.4012 11.8186-2.9557 4.4426-5.0968 9.08-6.4235 13.9123 1.2114.0682 2.2381.1603 3.08.2765 1.054.0134 2.0532.1843 2.9978.5126 3.4634 1.2038 5.9655 3.3968 7.5062 6.579 1.7528 3.0795 1.9179 6.6658.4952 10.7589-1.5868 4.5655-4.2108 7.7999-7.872 9.7034-3.6065 1.7461-7.4563 1.9078-11.5495.4852-5.9822-2.0793-9.7816-5.8701-11.3981-11.3724-1.6165-5.5024-1.3304-11.4021.8583-17.6993 1.5321-4.408 3.9641-9.1208 7.2961-14.1383 3.5441-5.1203 7.718-10.0216 12.5215-14.7042 4.8583-4.8399 9.9939-8.7012 15.407-11.5838z" fill="url(#a)"/></svg>