<svg fill="none" height="79" viewBox="0 0 30 79" width="30" xmlns="http://www.w3.org/2000/svg"><g fill="#fff" fill-opacity=".78"><path d="m13.4955 6.55798c-1.8395 0-3.60369.73076-4.90448 2.03151-1.30075 1.30076-2.03151 3.06501-2.03151 4.90451 0 1.8396.73076 3.6038 2.03151 4.9045 1.30079 1.3008 3.06498 2.0315 4.90448 2.0315s3.6037-.7307 4.9045-2.0315c1.3007-1.3007 2.0315-3.0649 2.0315-4.9045 0-1.8395-.7308-3.60375-2.0315-4.90451-1.3008-1.30075-3.065-2.03151-4.9045-2.03151zm0 11.44052c-1.1951 0-2.3412-.4747-3.1862-1.3197-.84505-.8451-1.31979-1.9912-1.31979-3.1863 0-1.195.47474-2.3412 1.31979-3.1862.845-.84508 1.9911-1.31982 3.1862-1.31982s2.3412.47474 3.1862 1.31982c.8451.845 1.3198 1.9912 1.3198 3.1862 0 1.1951-.4747 2.3412-1.3198 3.1863-.845.845-1.9911 1.3197-3.1862 1.3197z"/><path d="m20.706 7.92003c.8931 0 1.617-.72394 1.617-1.61699 0-.89304-.7239-1.617-1.617-1.617-.893 0-1.617.72396-1.617 1.617 0 .89305.724 1.61699 1.617 1.61699z"/><path d="m26.2965 4.659c-.3473-.89673-.8779-1.71108-1.558-2.39092-.6801-.67983-1.4946-1.21018-2.3915-1.557076-1.0495-.393968-2.1582-.606992-3.279-.630004-1.4445-.063-1.902-.081-5.565-.081-3.66299 0-4.1325.00000003-5.565.081-1.11992.021835-2.22786.234903-3.276.630004-.8971.346496-1.71185.876696-2.392 1.556586-.68014.67989-1.21066 1.49444-1.557501 2.39141-.394042 1.04942-.606578 2.15825-.628499 3.279-.0645 1.443-.084 1.90045-.084 5.565 0 3.663-.00000001 4.1295.084 5.565.0225 1.122.234 2.229.628499 3.2805.347821.8967.878841 1.7109 1.559151 2.3907s1.49495 1.2102 2.39185 1.5573c1.04615.4098 2.15456.6381 3.2775.675 1.4445.063 1.90201.0825 5.565.0825 3.663 0 4.1325 0 5.565-.0825 1.1206-.0227 2.2293-.2352 3.279-.6284.8966-.3478 1.7109-.8786 2.3909-1.5586.6801-.68 1.2109-1.4943 1.5586-2.391.3945-1.05.606-2.1569.6285-3.2789.0645-1.4431.084-1.9006.084-5.5651 0-3.66455 0-4.1295-.084-5.565-.0175-1.13659-.2311-2.26163-.6315-3.3255zm-1.827 14.298c-.0097.8645-.1675 1.7209-.4665 2.532-.2253.5834-.5701 1.113-1.0124 1.5551-.4423.442-.9722.7865-1.5556 1.0114-.8022.2977-1.6495.4555-2.505.4665-1.425.066-1.827.0825-5.481.0825-3.65699 0-4.0305 0-5.4825-.0825-.85511-.0104-1.70201-.1682-2.5035-.4665-.58547-.2235-1.1175-.5674-1.56166-1.0095-.44417-.4421-.79059-.9725-1.01684-1.557-.29483-.8024-.45253-1.6487-.4665-2.5035-.0645-1.425-.0795-1.827-.0795-5.481 0-3.65555 0-4.029.0795-5.4825.0097-.86397.16748-1.71987.4665-2.5305.4575-1.1835 1.395-2.115 2.5785-2.568.80188-.29679 1.64854-.45456 2.5035-.4665 1.4265-.0645 1.82701-.0825 5.4825-.0825 3.6555 0 4.0305 0 5.481.0825.8556.01029 1.703.1681 2.505.4665.5834.22541 1.1132.5703 1.5554 1.01254.4423.44224.7872.97206 1.0126 1.55546.2948.80242.4525 1.64874.4665 2.5035.0645 1.4265.081 1.82695.081 5.4825 0 3.654 0 4.047-.0645 5.4811h-.0165z"/><path d="m8.59209 78.496v-11.6111h3.91711l.5822-4.546h-4.49931v-2.8957c0-1.3118.3655-2.21 2.24831-2.21h2.3856v-4.053c-1.1607-.1244-2.3275-.1845-3.49492-.18-3.46233 0-5.83949 2.1137-5.83949 5.994v3.3362h-3.89159v4.546h3.90009v11.6196z"/><path d="m26.4495 33.967c.0195.2625.0195.5235.0195.7845 0 7.9875-6.0795 17.1915-17.19 17.1915-3.423 0-6.603-.9915-9.279-2.7135.486.0555.954.075 1.4595.075 2.71949.0065 5.36197-.9028 7.5015-2.5815-1.26087-.0229-2.48314-.4388-3.49614-1.1899-1.01301-.7511-1.76618-1.7998-2.15436-2.9996.3735.0555.7485.093 1.1415.093.5415 0 1.086-.075 1.5915-.2055-1.36836-.2763-2.59879-1.018-3.48207-2.099s-1.36489-2.4345-1.36293-3.8305v-.075c.8055.4485 1.74.729 2.73.7665-.82937-.5511-1.50942-1.299-1.97949-2.1768-.47007-.8779-.71554-1.8584-.71451-2.8542 0-1.122.2985-2.151.822-3.048 1.51821 1.8675 3.41175 3.3953 5.558 4.4845 2.14625 1.0891 4.4973 1.7153 6.901 1.838-.093-.45-.15-.9165-.15-1.3845-.0004-.7936.1556-1.5794.4591-2.3126.3035-.7333.7486-1.3995 1.3097-1.9606s1.2273-1.0062 1.9606-1.3097c.7332-.3035 1.519-.4595 2.3126-.4591 1.74 0 3.3105.729 4.4145 1.908 1.3527-.2616 2.6498-.7554 3.834-1.4595-.4509 1.3962-1.3954 2.5802-2.6565 3.33 1.1997-.1368 2.3722-.4523 3.4785-.936-.8263 1.2046-1.8502 2.261-3.0285 3.1245z"/></g></svg>